<?xml version="1.0"?>
<svg xmlns="http://www.w3.org/2000/svg" xmlns:xlink="http://www.w3.org/1999/xlink" xmlns:svgjs="http://svgjs.com/svgjs" version="1.1" width="512" height="512" x="0" y="0" viewBox="0 0 24 24" style="enable-background:new 0 0 512 512" xml:space="preserve" class=""><g><path xmlns="http://www.w3.org/2000/svg" d="m12 24c-6.617 0-12-5.383-12-12s5.383-12 12-12 12 5.383 12 12-5.383 12-12 12zm0-22.5c-5.79 0-10.5 4.71-10.5 10.5s4.71 10.5 10.5 10.5 10.5-4.71 10.5-10.5-4.71-10.5-10.5-10.5z" fill="#626262" data-original="#000000" style="" class=""/><path xmlns="http://www.w3.org/2000/svg" d="m7.25 15.75c-.192 0-.384-.073-.53-.22l-3-3c-.293-.293-.293-.768 0-1.061l3-3c.293-.293.768-.293 1.061 0s.293.768 0 1.061l-2.47 2.47 2.47 2.47c.293.293.293.768 0 1.061-.147.146-.339.219-.531.219z" fill="#626262" data-original="#000000" style="" class=""/><path xmlns="http://www.w3.org/2000/svg" d="m10.75 17c-.07 0-.142-.01-.212-.03-.397-.117-.625-.534-.508-.931l2.5-8.5c.118-.398.538-.622.931-.508.397.117.625.534.508.931l-2.5 8.5c-.095.327-.395.538-.719.538z" fill="#626262" data-original="#000000" style="" class=""/><path xmlns="http://www.w3.org/2000/svg" d="m16.75 15.75c-.192 0-.384-.073-.53-.22-.293-.293-.293-.768 0-1.061l2.47-2.47-2.47-2.47c-.293-.293-.293-.768 0-1.061s.768-.293 1.061 0l3 3c.293.293.293.768 0 1.061l-3 3c-.147.148-.339.221-.531.221z" fill="#626262" data-original="#000000" style="" class=""/></g></svg>
