<?xml version="1.0" encoding="iso-8859-1"?>
<!-- Generator: Adobe Illustrator 19.0.0, SVG Export Plug-In . SVG Version: 6.00 Build 0)  -->
<svg version="1.1" id="Capa_1" xmlns="http://www.w3.org/2000/svg" xmlns:xlink="http://www.w3.org/1999/xlink" x="0px" y="0px"
	 viewBox="0 0 512 512" style="enable-background:new 0 0 512 512;" xml:space="preserve">
<g>
	<g>
		<path d="M288.862,49.704c-2.566-2.729-6.256-4.401-10.084-4.589h-0.007l-83.931-4.389c-5.17-0.268-9.571,3.69-9.846,8.86
			c-0.275,5.163,3.702,9.566,8.86,9.834l64.244,3.366L66.391,198.384c-4.221,2.991-5.22,8.829-2.229,13.049
			c2.984,4.227,8.829,5.226,13.056,2.236L271.429,76.284l-11.033,65.998c-0.855,5.089,2.592,9.921,7.692,10.777
			c5.095,0.855,9.928-2.592,10.783-7.687l13.856-82.881v-0.019c0.137-0.83,0.212-1.68,0.206-2.529
			C292.953,56.135,291.454,52.408,288.862,49.704z"/>
	</g>
</g>
<g>
	<g>
		<path d="M65.561,358.94H21.853c-8.654,0.037-15.573,6.956-15.61,15.604v43.689c0.038,8.654,6.956,15.565,15.61,15.603h43.708
			c8.654-0.037,15.573-6.949,15.61-15.603v-43.689C81.134,365.896,74.215,358.978,65.561,358.94z M62.439,415.11H24.976v-37.445
			h37.463V415.11z"/>
	</g>
</g>
<g>
	<g>
		<path d="M171.708,296.526H128c-8.654,0.037-15.573,6.956-15.61,15.604v106.103c0.037,8.654,6.956,15.566,15.61,15.603h43.708
			c8.648-0.037,15.573-6.949,15.61-15.603V312.13C187.281,303.482,180.356,296.564,171.708,296.526z M168.585,415.11h-37.463
			v-99.859h37.463V415.11z"/>
	</g>
</g>
<g>
	<g>
		<path d="M277.853,227.875h-43.708c-8.654,0.037-15.573,6.956-15.61,15.603v174.754c0.037,8.654,6.956,15.566,15.61,15.603h43.708
			c8.648-0.037,15.573-6.949,15.61-15.603V243.478C293.426,234.83,286.501,227.905,277.853,227.875z M274.732,415.11h-37.463V246.6
			h37.463V415.11z"/>
	</g>
</g>
<g>
	<g>
		<path d="M384,152.973h-43.708c-8.654,0.037-15.573,6.956-15.61,15.603v249.65c0.038,8.66,6.956,15.572,15.61,15.61H384
			c8.648-0.037,15.573-6.949,15.61-15.603V168.576C399.573,159.928,392.648,153.01,384,152.973z M380.878,415.11h-37.463V246.6
			h37.463V415.11z M380.878,227.875h-37.463v-56.17h37.463V227.875z"/>
	</g>
</g>
<g>
	<g>
		<path d="M490.147,46.87h-43.708c-8.654,0.037-15.573,6.956-15.61,15.603v355.758c0.037,8.655,6.956,15.566,15.61,15.604h43.708
			c8.648-0.037,15.573-6.949,15.61-15.603V62.473C505.719,53.825,498.795,46.907,490.147,46.87z M487.024,415.104h-37.463V171.697
			h37.463V415.104z M487.024,152.972h-37.463V65.595h37.463V152.972z"/>
	</g>
</g>
<g>
	<g>
		<path d="M502.634,452.561H9.366c-5.17,0-9.366,4.196-9.366,9.359c0,5.17,4.196,9.366,9.366,9.366h493.268
			c5.17,0,9.366-4.196,9.366-9.366C512,456.757,507.804,452.561,502.634,452.561z"/>
	</g>
</g>
<g>
</g>
<g>
</g>
<g>
</g>
<g>
</g>
<g>
</g>
<g>
</g>
<g>
</g>
<g>
</g>
<g>
</g>
<g>
</g>
<g>
</g>
<g>
</g>
<g>
</g>
<g>
</g>
<g>
</g>
</svg>
